<svg width="648" height="163" xmlns="http://www.w3.org/2000/svg" xmlns:xlink="http://www.w3.org/1999/xlink" xml:space="preserve" overflow="hidden"><defs><clipPath id="clip0"><rect x="0" y="0" width="648" height="163"/></clipPath></defs><g clip-path="url(#clip0)"><path d="M0 0 603.529 0 603.529 188.603 0 188.603Z" fill="#FFFFFF" transform="scale(1.07368 1)"/><path d="M45.2647 98.0735 558.264 98.0735" stroke="#1F7A4D" stroke-width="2.26323" stroke-linecap="round" fill="none" transform="scale(1.07368 1)"/><path d="M558.264 98.0735 548.457 95.0558 548.457 101.091Z" fill="#1F7A4D" transform="scale(1.07368 1)"/><path d="M45.2647 91.2838 45.2647 104.863" stroke="#1F7A4D" stroke-width="2.07463" fill="none" transform="scale(1.07368 1)"/><path d="M69.7831 95.0558 69.7831 101.091" stroke="#1F7A4D" stroke-width="1.50882" fill="none" transform="scale(1.07368 1)"/><path d="M94.3014 95.0558 94.3014 101.091" stroke="#1F7A4D" stroke-width="1.50882" fill="none" transform="scale(1.07368 1)"/><path d="M118.82 95.0558 118.82 101.091" stroke="#1F7A4D" stroke-width="1.50882" fill="none" transform="scale(1.07368 1)"/><path d="M143.338 95.0558 143.338 101.091" stroke="#1F7A4D" stroke-width="1.50882" fill="none" transform="scale(1.07368 1)"/><path d="M167.857 95.0558 167.857 101.091" stroke="#1F7A4D" stroke-width="1.50882" fill="none" transform="scale(1.07368 1)"/><path d="M192.375 95.0558 192.375 101.091" stroke="#1F7A4D" stroke-width="1.50882" fill="none" transform="scale(1.07368 1)"/><path d="M216.893 95.0558 216.893 101.091" stroke="#1F7A4D" stroke-width="1.50882" fill="none" transform="scale(1.07368 1)"/><path d="M241.412 95.0558 241.412 101.091" stroke="#1F7A4D" stroke-width="1.50882" fill="none" transform="scale(1.07368 1)"/><path d="M265.93 95.0558 265.93 101.091" stroke="#1F7A4D" stroke-width="1.50882" fill="none" transform="scale(1.07368 1)"/><path d="M290.448 91.2838 290.448 104.863" stroke="#1F7A4D" stroke-width="2.07463" fill="none" transform="scale(1.07368 1)"/><path d="M314.967 95.0558 314.967 101.091" stroke="#1F7A4D" stroke-width="1.50882" fill="none" transform="scale(1.07368 1)"/><path d="M339.485 95.0558 339.485 101.091" stroke="#1F7A4D" stroke-width="1.50882" fill="none" transform="scale(1.07368 1)"/><path d="M364.003 95.0558 364.003 101.091" stroke="#1F7A4D" stroke-width="1.50882" fill="none" transform="scale(1.07368 1)"/><path d="M388.522 95.0558 388.522 101.091" stroke="#1F7A4D" stroke-width="1.50882" fill="none" transform="scale(1.07368 1)"/><path d="M413.04 95.0558 413.04 101.091" stroke="#1F7A4D" stroke-width="1.50882" fill="none" transform="scale(1.07368 1)"/><path d="M437.559 95.0558 437.559 101.091" stroke="#1F7A4D" stroke-width="1.50882" fill="none" transform="scale(1.07368 1)"/><path d="M462.077 95.0558 462.077 101.091" stroke="#1F7A4D" stroke-width="1.50882" fill="none" transform="scale(1.07368 1)"/><path d="M486.595 95.0558 486.595 101.091" stroke="#1F7A4D" stroke-width="1.50882" fill="none" transform="scale(1.07368 1)"/><path d="M511.114 95.0558 511.114 101.091" stroke="#1F7A4D" stroke-width="1.50882" fill="none" transform="scale(1.07368 1)"/><path d="M535.632 91.2838 535.632 104.863" stroke="#1F7A4D" stroke-width="2.07463" fill="none" transform="scale(1.07368 1)"/><text fill="#111827" font-family="Verdana,Verdana_MSFontService,sans-serif" font-weight="400" font-size="84" transform="matrix(0.405 0 0 0.377206 20.8575 136)">4</text><text fill="#111827" font-family="Verdana,Verdana_MSFontService,sans-serif" font-weight="400" font-size="84" transform="matrix(0.405 0 0 0.377206 42.3225 136)">,</text><text fill="#111827" font-family="Verdana,Verdana_MSFontService,sans-serif" font-weight="400" font-size="84" transform="matrix(0.405 0 0 0.377206 54.8775 136)">2</text><text fill="#111827" font-family="Verdana,Verdana_MSFontService,sans-serif" font-weight="400" font-size="84" transform="matrix(0.405 0 0 0.377206 284.108 136)">4</text><text fill="#111827" font-family="Verdana,Verdana_MSFontService,sans-serif" font-weight="400" font-size="84" transform="matrix(0.405 0 0 0.377206 305.573 136)">,</text><text fill="#111827" font-family="Verdana,Verdana_MSFontService,sans-serif" font-weight="400" font-size="84" transform="matrix(0.405 0 0 0.377206 318.128 136)">3</text><text fill="#111827" font-family="Verdana,Verdana_MSFontService,sans-serif" font-weight="400" font-size="84" transform="matrix(0.405 0 0 0.377206 547.357 136)">4</text><text fill="#111827" font-family="Verdana,Verdana_MSFontService,sans-serif" font-weight="400" font-size="84" transform="matrix(0.405 0 0 0.377206 568.823 136)">,</text><text fill="#111827" font-family="Verdana,Verdana_MSFontService,sans-serif" font-weight="400" font-size="84" transform="matrix(0.405 0 0 0.377206 581.378 136)">4</text><path d="M181.813 87.5117 202.937 108.635" stroke="#3B82F6" stroke-width="2.26323" stroke-linecap="round" transform="scale(1.07368 1)"/><path d="M181.813 108.635 202.937 87.5117" stroke="#3B82F6" stroke-width="2.26323" stroke-linecap="round" transform="scale(1.07368 1)"/><path d="M451.515 87.5117 472.639 108.635" stroke="#3B82F6" stroke-width="2.26323" stroke-linecap="round" transform="scale(1.07368 1)"/><path d="M451.515 108.635 472.639 87.5117" stroke="#3B82F6" stroke-width="2.26323" stroke-linecap="round" transform="scale(1.07368 1)"/><text fill="#111827" font-family="Verdana,Verdana_MSFontService,sans-serif" font-weight="400" font-size="96" transform="matrix(0.405 0 0 0.377206 192.982 72)">C</text><text fill="#111827" font-family="Verdana,Verdana_MSFontService,sans-serif" font-weight="400" font-size="96" transform="matrix(0.405 0 0 0.377206 481.14 72)">D</text><text fill="#6B7280" font-family="Verdana,Verdana_MSFontService,sans-serif" font-weight="400" font-size="22" transform="matrix(0.405 0 0 0.377206 299.295 181)">Axe prolongé au</text><text fill="#6B7280" font-family="Verdana,Verdana_MSFontService,sans-serif" font-weight="400" font-size="22" transform="matrix(0.405 0 0 0.377206 372.195 181)">-</text><text fill="#6B7280" font-family="Verdana,Verdana_MSFontService,sans-serif" font-weight="400" font-size="22" transform="matrix(0.405 0 0 0.377206 376.245 181)">delà de </text><text fill="#6B7280" font-family="Verdana,Verdana_MSFontService,sans-serif" font-weight="400" font-size="22" transform="matrix(0.405 0 0 0.377206 412.29 181)">4</text><text fill="#6B7280" font-family="Verdana,Verdana_MSFontService,sans-serif" font-weight="400" font-size="22" transform="matrix(0.405 0 0 0.377206 417.96 181)">,</text><text fill="#6B7280" font-family="Verdana,Verdana_MSFontService,sans-serif" font-weight="400" font-size="22" transform="matrix(0.405 0 0 0.377206 421.2 181)">44 </text><text fill="#6B7280" font-family="Verdana,Verdana_MSFontService,sans-serif" font-weight="400" font-size="22" transform="matrix(0.405 0 0 0.377206 435.78 181)">— </text><text fill="#6B7280" font-family="Verdana,Verdana_MSFontService,sans-serif" font-weight="400" font-size="22" transform="matrix(0.405 0 0 0.377206 447.93 181)">ticks </text><text fill="#6B7280" font-family="Verdana,Verdana_MSFontService,sans-serif" font-weight="400" font-size="22" transform="matrix(0.405 0 0 0.377206 471.42 181)">0</text><text fill="#6B7280" font-family="Verdana,Verdana_MSFontService,sans-serif" font-weight="400" font-size="22" transform="matrix(0.405 0 0 0.377206 477.09 181)">,</text><text fill="#6B7280" font-family="Verdana,Verdana_MSFontService,sans-serif" font-weight="400" font-size="22" transform="matrix(0.405 0 0 0.377206 480.33 181)">01 </text><text fill="#6B7280" font-family="Verdana,Verdana_MSFontService,sans-serif" font-weight="400" font-size="22" transform="matrix(0.405 0 0 0.377206 494.91 181)">(</text><text fill="#6B7280" font-family="Verdana,Verdana_MSFontService,sans-serif" font-weight="400" font-size="22" transform="matrix(0.405 0 0 0.377206 498.96 181)">4</text><text fill="#6B7280" font-family="Verdana,Verdana_MSFontService,sans-serif" font-weight="400" font-size="22" transform="matrix(0.405 0 0 0.377206 504.63 181)">,</text><text fill="#6B7280" font-family="Verdana,Verdana_MSFontService,sans-serif" font-weight="400" font-size="22" transform="matrix(0.405 0 0 0.377206 507.87 181)">2</text><text fill="#6B7280" font-family="Arial,Arial_MSFontService,sans-serif" font-weight="400" font-size="22" transform="matrix(0.405 0 0 0.377206 513.54 181)">→</text><text fill="#6B7280" font-family="Verdana,Verdana_MSFontService,sans-serif" font-weight="400" font-size="22" transform="matrix(0.405 0 0 0.377206 522.45 181)">4</text><text fill="#6B7280" font-family="Verdana,Verdana_MSFontService,sans-serif" font-weight="400" font-size="22" transform="matrix(0.405 0 0 0.377206 528.12 181)">,</text><text fill="#6B7280" font-family="Verdana,Verdana_MSFontService,sans-serif" font-weight="400" font-size="22" transform="matrix(0.405 0 0 0.377206 531.36 181)">4</text><text fill="#6B7280" font-family="Verdana,Verdana_MSFontService,sans-serif" font-weight="400" font-size="22" transform="matrix(0.405 0 0 0.377206 537.03 181)">) </text><text fill="#6B7280" font-family="Verdana,Verdana_MSFontService,sans-serif" font-weight="400" font-size="22" transform="matrix(0.405 0 0 0.377206 544.32 181)">— </text><text fill="#6B7280" font-family="Verdana,Verdana_MSFontService,sans-serif" font-weight="400" font-size="22" transform="matrix(0.405 0 0 0.377206 556.47 181)">2025</text><text fill="#6B7280" font-family="Verdana,Verdana_MSFontService,sans-serif" font-weight="400" font-size="22" transform="matrix(0.405 0 0 0.377206 579.15 181)">-</text><text fill="#6B7280" font-family="Verdana,Verdana_MSFontService,sans-serif" font-weight="400" font-size="22" transform="matrix(0.405 0 0 0.377206 583.2 181)">09</text><text fill="#6B7280" font-family="Verdana,Verdana_MSFontService,sans-serif" font-weight="400" font-size="22" transform="matrix(0.405 0 0 0.377206 594.54 181)">-</text><text fill="#6B7280" font-family="Verdana,Verdana_MSFontService,sans-serif" font-weight="400" font-size="22" transform="matrix(0.405 0 0 0.377206 598.59 181)">21 00</text><text fill="#6B7280" font-family="Verdana,Verdana_MSFontService,sans-serif" font-weight="400" font-size="22" transform="matrix(0.405 0 0 0.377206 624.51 181)">:</text><text fill="#6B7280" font-family="Verdana,Verdana_MSFontService,sans-serif" font-weight="400" font-size="22" transform="matrix(0.405 0 0 0.377206 628.56 181)">00</text></g></svg>