<svg xmlns="http://www.w3.org/2000/svg" viewBox="0 0 800 520"><rect width="800" height="520" fill="#fff7ed"/><circle cx="330" cy="260" r="210" fill="#f59e0b"/><circle cx="330" cy="260" r="185" fill="#fde68a"/><path d="M330 260 L330 75 A185 185 0 0 1 515 260 Z" fill="#fed7aa" stroke="#7c2d12" stroke-width="6"/><path d="M330 260 L515 260 A185 185 0 0 1 330 445 Z" fill="#fde68a" stroke="#7c2d12" stroke-width="6"/><line x1="330" y1="75" x2="330" y2="445" stroke="#7c2d12" stroke-width="5"/><line x1="145" y1="260" x2="515" y2="260" stroke="#7c2d12" stroke-width="5"/><line x1="199" y1="129" x2="461" y2="391" stroke="#7c2d12" stroke-width="5"/><line x1="461" y1="129" x2="199" y2="391" stroke="#7c2d12" stroke-width="5"/><g fill="#dc2626"><circle cx="245" cy="190" r="22"/><circle cx="380" cy="150" r="20"/><circle cx="225" cy="320" r="22"/><circle cx="410" cy="340" r="23"/><circle cx="330" cy="250" r="18"/></g><g fill="#16a34a"><circle cx="290" cy="350" r="15"/><circle cx="400" cy="230" r="14"/><circle cx="265" cy="245" r="13"/></g><text x="560" y="230" font-family="Verdana" font-size="42" fill="#7c2d12" font-weight="700">Pizza</text><text x="560" y="285" font-family="Verdana" font-size="28" fill="#7c2d12">partagée</text></svg>